# xmcd
# 
# Track frame offsets:
#     150
#     8281
#     16073
#     19778
#     25691
#     34421
#     45684
#     56256
#     67853
#     76425
#     86288
#     96578
#     101914
#     108647
#     115257
#     121832
#     126487
#     134196
#     140107
#     150464
#     157076
#     164948
#     177088
# 
# Disc length: 2588
# 
# Revision: 3
# Processed by: cddbd v1.5.2PL0 Copyright (c) Steve Scherf et al.
# Submitted via: fre:ac v1.0.31
# 
DISCID=380a1a17
DTITLE=Original Soundtrack - The Ballad Of Buster Scruggs
DYEAR=2018
DGENRE=Soundtrack
TTITLE0=The Book
TTITLE1=Tim Blake Nelson - Cool Water
TTITLE2=David Rawlings and Gillian Welsh - Carefree Drifter
TTITLE3=Randall Collins
TTITLE4=Near Algodones
TTITLE5=The Wingless Thrush
TTITLE6=Our Revels
TTITLE7=Willie Watson and Tim Blake Nelson -  When A Cowboy Trades His Spurs For Wings
TTITLE8=Canyon Awake
TTITLE9=How Deep
TTITLE10=Hello, Mr. Pocket!
TTITLE11=Your Share
TTITLE12=Tim Blake Nelson - Little Joe The Wrangler (Surly Joe)
TTITLE13=Goodbye Canyon
TTITLE14=Unmarked Grave
TTITLE15=Wagon Train
TTITLE16=Certainty
TTITLE17=The Oregon Trail
TTITLE18=Seeking Alice
TTITLE19=The Gal Who Got Rattled
TTITLE20=Brendan Gleeson - The Unfortunate Lad
TTITLE21=The Mortal Remains
TTITLE22=The End Of Buster Scruggs
EXTD=
EXTT0=
EXTT1=
EXTT2=
EXTT3=
EXTT4=
EXTT5=
EXTT6=
EXTT7=
EXTT8=
EXTT9=
EXTT10=
EXTT11=
EXTT12=
EXTT13=
EXTT14=
EXTT15=
EXTT16=
EXTT17=
EXTT18=
EXTT19=
EXTT20=
EXTT21=
EXTT22=
PLAYORDER=
